<?xml version="1.0" standalone="no"?>
<!DOCTYPE svg PUBLIC "-//W3C//DTD SVG 20010904//EN"
 "http://www.w3.org/TR/2001/REC-SVG-20010904/DTD/svg10.dtd">
<svg version="1.0" xmlns="http://www.w3.org/2000/svg"
 width="94.000000pt" height="92.000000pt" viewBox="0 0 94.000000 92.000000"
 preserveAspectRatio="xMidYMid meet">
<metadata>
Created by potrace 1.10, written by Peter Selinger 2001-2011
</metadata>
<g transform="translate(0.000000,92.000000) scale(0.100000,-0.100000)"
fill="#00bfff" stroke="none">
<path d="M133 891 c-52 -24 -98 -86 -112 -152 -14 -65 -14 -473 0 -538 14 -68
60 -128 117 -154 45 -21 61 -22 322 -22 261 0 277 1 322 22 57 26 103 86 117
154 14 65 14 473 0 538 -22 104 -103 171 -204 170 l-50 -1 68 -17 c85 -22 115
-44 147 -107 25 -49 25 -51 25 -314 0 -251 -1 -268 -22 -312 -45 -98 -155
-130 -418 -124 -281 7 -336 24 -388 121 -21 37 -22 56 -25 292 -2 156 1 266 7
291 23 85 88 139 191 160 l45 10 -50 1 c-30 0 -67 -7 -92 -18z"/>
<path d="M435 770 c-3 -5 -12 -7 -21 -3 -8 3 -22 -1 -32 -9 -9 -8 -25 -18 -35
-22 -11 -3 -21 -15 -24 -25 -3 -11 -11 -22 -19 -25 -8 -3 -14 -16 -14 -29 0
-13 -5 -28 -12 -35 -8 -8 -8 -15 2 -26 7 -9 9 -23 6 -32 -4 -10 1 -25 11 -36
10 -11 17 -23 17 -27 -3 -14 9 -31 22 -31 8 0 14 -6 14 -14 0 -8 6 -16 13 -19
6 -3 -10 -14 -38 -27 -138 -60 -137 -59 -133 -168 l3 -77 265 0 265 0 3 79 c3
93 -9 118 -65 136 -21 7 -42 16 -47 21 -6 5 -18 9 -27 9 -43 0 -40 40 6 66 11
6 20 17 20 25 0 8 5 21 10 29 12 20 16 98 5 105 -4 3 -6 14 -3 26 4 15 0 22
-15 26 -11 2 -23 16 -26 29 -4 13 -12 24 -18 24 -6 0 -19 6 -27 14 -20 17 -98
29 -106 16z m35 -25 c0 -8 7 -15 15 -15 8 0 15 5 15 10 0 6 6 10 14 10 8 0 13
-8 12 -17 -1 -14 5 -17 27 -15 25 3 27 1 18 -17 -12 -22 -1 -34 23 -25 17 7
22 -11 6 -21 -18 -11 -11 -35 10 -35 11 0 20 -4 20 -10 0 -5 -7 -10 -15 -10
-17 0 -20 -25 -5 -35 17 -10 11 -22 -12 -29 -18 -4 -20 -8 -10 -18 19 -19 14
-30 -10 -26 -17 2 -24 -3 -26 -20 -3 -18 -8 -21 -28 -16 -18 5 -24 2 -24 -10
0 -20 -14 -21 -31 0 -11 14 -13 14 -21 0 -12 -21 -28 -20 -28 0 0 12 -7 14
-28 9 -25 -5 -29 -3 -28 17 1 18 -4 22 -21 20 -13 -2 -23 2 -23 7 0 6 5 11 10
11 18 0 10 22 -10 27 -23 6 -25 14 -7 32 10 10 9 15 -5 25 -22 16 -23 26 -3
26 18 0 20 21 3 38 -7 7 -8 13 -2 13 5 1 16 2 24 3 9 0 14 10 13 24 -2 19 1
21 22 16 21 -5 25 -3 25 15 0 24 10 27 29 9 10 -11 14 -10 22 5 12 21 29 22
29 2z m-13 -322 c24 0 43 5 51 15 11 14 12 14 12 0 0 -11 26 -27 78 -48 113
-47 112 -46 119 -134 l6 -76 -263 0 -263 0 6 72 c7 86 15 95 120 138 52 22 77
37 77 48 0 15 2 15 10 2 5 -8 26 -16 47 -17z"/>
<path d="M450 690 c0 -10 7 -26 16 -35 16 -15 18 -15 37 4 24 24 21 28 -22 41
-27 7 -31 6 -31 -10z"/>
<path d="M386 671 c-32 -34 -32 -37 3 -43 30 -4 48 22 35 52 -9 21 -10 21 -38
-9z m24 -11 c0 -5 -5 -10 -11 -10 -5 0 -7 5 -4 10 3 6 8 10 11 10 2 0 4 -4 4
-10z"/>
<path d="M527 642 c-17 -18 -14 -52 3 -52 5 0 16 -3 26 -7 15 -5 16 -2 10 28
-9 45 -19 53 -39 31z"/>
<path d="M434 605 c-8 -19 3 -35 26 -35 19 0 30 17 23 38 -6 17 -42 15 -49 -3z"/>
<path d="M350 589 c0 -11 5 -29 11 -40 10 -20 11 -20 30 -3 23 21 24 28 3 48
-22 22 -44 20 -44 -5z"/>
<path d="M501 557 c-13 -13 -15 -53 -3 -61 5 -3 21 8 36 23 15 16 24 31 19 33
-24 14 -42 15 -52 5z"/>
<path d="M404 529 c-21 -23 -20 -24 30 -37 36 -11 38 -10 32 11 -3 12 -6 25
-6 28 0 17 -40 15 -56 -2z"/>
</g>
</svg>
