<?xml version="1.0" standalone="no"?>
<!DOCTYPE svg PUBLIC "-//W3C//DTD SVG 20010904//EN"
 "http://www.w3.org/TR/2001/REC-SVG-20010904/DTD/svg10.dtd">
<svg version="1.0" xmlns="http://www.w3.org/2000/svg"
 width="95.000000pt" height="98.000000pt" viewBox="0 0 95.000000 98.000000"
 preserveAspectRatio="xMidYMid meet">
<metadata>
Created by potrace 1.10, written by Peter Selinger 2001-2011
</metadata>
<g transform="translate(0.000000,98.000000) scale(0.100000,-0.100000)"
fill="#00bfff" stroke="none">
<path d="M178 926 c-25 -7 -58 -20 -72 -29 -36 -24 -73 -83 -85 -137 -14 -60
-14 -476 0 -539 14 -68 60 -128 117 -154 45 -21 61 -22 322 -22 261 0 277 1
322 22 57 26 103 86 117 154 14 65 14 473 0 538 -14 68 -60 128 -117 154 -44
21 -64 22 -302 24 -184 2 -268 -1 -302 -11z m594 -34 c104 -51 118 -100 118
-402 0 -174 -4 -238 -15 -278 -18 -58 -56 -109 -94 -124 -57 -23 -190 -33
-386 -28 -182 5 -204 8 -247 29 -53 25 -81 58 -104 123 -12 34 -15 91 -15 275
0 131 5 249 10 271 23 83 77 134 163 152 23 5 151 8 283 7 229 -2 242 -3 287
-25z"/>
<path d="M205 683 c-26 -3 -48 -13 -64 -31 -25 -26 -26 -31 -28 -184 -1 -126
1 -159 13 -169 10 -9 99 -11 335 -10 177 1 325 4 330 7 5 3 9 77 9 165 l0 161
-32 34 c-24 25 -41 34 -65 34 -17 0 -34 -4 -37 -9 -3 -4 -17 -6 -30 -4 -17 4
-30 -2 -42 -16 -21 -24 -56 -29 -48 -7 8 21 -13 29 -79 32 -49 1 -63 -2 -87
-22 -32 -27 -63 -32 -54 -9 6 16 -33 36 -64 33 -9 -1 -35 -3 -57 -5z m294 -17
c18 4 31 2 31 -4 0 -14 -51 -22 -71 -11 -9 4 -19 5 -23 2 -4 -4 -16 -8 -28
-10 -17 -3 -19 -1 -8 12 7 8 16 13 20 10 5 -3 12 -1 15 5 5 8 11 8 19 0 7 -5
27 -7 45 -4z m230 -1 c8 0 16 -5 18 -12 3 -9 -4 -10 -26 -3 -18 5 -33 5 -36
-1 -8 -12 -72 -12 -80 1 -4 6 6 8 24 6 17 -2 39 2 48 9 10 7 22 10 28 7 5 -4
16 -7 24 -7z m-509 -7 c8 0 32 4 53 7 20 3 37 2 37 -3 0 -5 -12 -9 -27 -10
-16 -1 -44 -5 -64 -8 -26 -4 -39 -1 -49 12 -14 15 -13 16 10 9 14 -5 32 -8 40
-7z m300 -59 c0 -17 -8 -19 -85 -19 -76 0 -85 2 -85 18 0 10 2 21 4 23 2 2 41
3 85 1 72 -3 81 -6 81 -23z m190 4 c0 -22 -4 -23 -65 -23 -61 0 -65 1 -65 23
0 21 4 22 65 22 61 0 65 -1 65 -22z m80 2 c0 -22 -4 -25 -35 -25 -28 0 -35 4
-35 19 0 15 8 21 33 24 17 2 33 5 35 5 1 1 2 -9 2 -23z m-450 -5 c0 -19 -7
-20 -105 -20 -98 0 -105 1 -105 20 0 19 7 20 105 20 98 0 105 -1 105 -20z
m220 0 c0 -11 -7 -20 -15 -20 -8 0 -15 9 -15 20 0 11 7 20 15 20 8 0 15 -9 15
-20z m-380 -50 c0 -15 -7 -20 -25 -20 -18 0 -25 5 -25 20 0 15 7 20 25 20 18
0 25 -5 25 -20z m50 -3 c0 -16 -6 -23 -20 -23 -14 0 -20 7 -20 23 0 16 6 23
20 23 14 0 20 -7 20 -23z m60 3 c0 -15 -7 -20 -25 -20 -18 0 -25 5 -25 20 0
15 7 20 25 20 18 0 25 -5 25 -20z m50 -30 c0 -43 -3 -50 -20 -50 -17 0 -20 7
-20 50 0 43 3 50 20 50 17 0 20 -7 20 -50z m60 26 c0 -19 -4 -22 -23 -19 -31
6 -31 43 0 43 17 0 23 -6 23 -24z m50 4 c0 -11 -7 -20 -15 -20 -8 0 -15 -4
-15 -10 0 -5 7 -10 15 -10 8 0 15 -7 15 -15 0 -8 5 -15 10 -15 6 0 10 7 10 15
0 8 7 15 15 15 8 0 15 5 15 10 0 6 -7 10 -15 10 -8 0 -15 9 -15 20 0 13 7 20
20 20 17 0 20 -7 20 -50 l0 -50 -50 0 -50 0 0 50 c0 43 3 50 20 50 13 0 20 -7
20 -20z m110 -3 c0 -16 -6 -23 -20 -23 -14 0 -20 7 -20 23 0 16 6 23 20 23 14
0 20 -7 20 -23z m60 4 c0 -10 -9 -21 -20 -24 -16 -4 -20 0 -20 19 0 17 6 24
20 24 13 0 20 -7 20 -19z m60 -1 c0 -15 -7 -20 -25 -20 -18 0 -25 5 -25 20 0
15 7 20 25 20 18 0 25 -5 25 -20z m50 -3 c0 -16 -6 -23 -20 -23 -14 0 -20 7
-20 23 0 16 6 23 20 23 14 0 20 -7 20 -23z m60 -27 c0 -47 -2 -50 -25 -50 -18
0 -25 5 -25 20 0 13 7 20 20 20 11 0 20 5 20 10 0 6 -9 10 -20 10 -13 0 -20 7
-20 20 0 15 7 20 25 20 23 0 25 -3 25 -50z m-610 -30 c0 -15 -7 -20 -25 -20
-18 0 -25 5 -25 20 0 15 7 20 25 20 18 0 25 -5 25 -20z m50 0 c0 -13 -7 -20
-20 -20 -13 0 -20 7 -20 20 0 13 7 20 20 20 13 0 20 -7 20 -20z m60 0 c0 -15
-7 -20 -25 -20 -18 0 -25 5 -25 20 0 15 7 20 25 20 18 0 25 -5 25 -20z m110 0
c0 -14 -7 -20 -23 -20 -16 0 -23 6 -23 20 0 14 7 20 23 20 16 0 23 -6 23 -20z
m160 0 c0 -13 -7 -20 -20 -20 -13 0 -20 7 -20 20 0 13 7 20 20 20 13 0 20 -7
20 -20z m60 0 c0 -13 -7 -20 -20 -20 -13 0 -20 7 -20 20 0 13 7 20 20 20 13 0
20 -7 20 -20z m60 0 c0 -15 -7 -20 -25 -20 -18 0 -25 5 -25 20 0 15 7 20 25
20 18 0 25 -5 25 -20z m50 0 c0 -13 -7 -20 -20 -20 -13 0 -20 7 -20 20 0 13 7
20 20 20 13 0 20 -7 20 -20z m-550 -50 c0 -15 -7 -20 -25 -20 -18 0 -25 5 -25
20 0 15 7 20 25 20 18 0 25 -5 25 -20z m50 -4 c0 -19 -4 -23 -20 -19 -11 3
-20 14 -20 24 0 12 7 19 20 19 14 0 20 -7 20 -24z m60 4 c0 -15 -7 -20 -25
-20 -18 0 -25 5 -25 20 0 15 7 20 25 20 18 0 25 -5 25 -20z m50 0 c0 -13 -7
-20 -20 -20 -13 0 -20 7 -20 20 0 13 7 20 20 20 13 0 20 -7 20 -20z m60 0 c0
-13 -7 -20 -19 -20 -10 0 -21 9 -24 20 -4 16 0 20 19 20 17 0 24 -6 24 -20z
m53 0 c-3 -11 -14 -20 -24 -20 -12 0 -19 7 -19 20 0 14 7 20 24 20 19 0 23 -4
19 -20z m57 0 c0 -13 -7 -20 -20 -20 -13 0 -20 7 -20 20 0 13 7 20 20 20 13 0
20 -7 20 -20z m50 0 c0 -13 -7 -20 -20 -20 -13 0 -20 7 -20 20 0 13 7 20 20
20 13 0 20 -7 20 -20z m60 0 c0 -13 -7 -20 -20 -20 -13 0 -20 7 -20 20 0 13 7
20 20 20 13 0 20 -7 20 -20z m60 0 c0 -15 -7 -20 -25 -20 -18 0 -25 5 -25 20
0 15 7 20 25 20 18 0 25 -5 25 -20z m50 0 c0 -13 -7 -20 -20 -20 -13 0 -20 7
-20 20 0 13 7 20 20 20 13 0 20 -7 20 -20z m60 0 c0 -15 -7 -20 -25 -20 -18 0
-25 5 -25 20 0 15 7 20 25 20 18 0 25 -5 25 -20z m-590 -55 c0 -22 -4 -25 -35
-25 -31 0 -35 3 -35 25 0 22 4 25 35 25 31 0 35 -3 35 -25z m140 0 c0 -28 -7
-29 -84 -19 -27 4 -46 12 -46 20 0 16 9 18 76 21 51 2 54 1 54 -22z m160 0 c0
-24 -2 -25 -75 -25 -73 0 -75 1 -75 25 0 24 2 25 75 25 73 0 75 -1 75 -25z
m60 0 c0 -20 -5 -25 -25 -25 -20 0 -25 5 -25 25 0 20 5 25 25 25 20 0 25 -5
25 -25z m120 0 c0 -23 -3 -25 -50 -25 -47 0 -50 2 -50 25 0 23 3 25 50 25 47
0 50 -2 50 -25z m110 -1 c0 -26 -1 -27 -47 -20 -54 7 -58 10 -50 31 5 10 20
15 52 15 42 0 45 -2 45 -26z m-450 -54 c0 -19 -7 -20 -105 -20 -98 0 -105 1
-105 20 0 19 7 20 105 20 98 0 105 -1 105 -20z m111 3 c1 -17 2 -17 6 0 3 13
15 17 54 17 42 0 49 -3 49 -20 0 -19 -7 -20 -95 -20 -52 0 -98 -1 -102 -2 -5
-2 -9 7 -11 20 -3 20 0 22 47 22 41 0 51 -3 52 -17z m339 -5 c0 -22 -3 -23
-105 -23 -102 0 -105 1 -105 23 0 21 3 22 105 22 102 0 105 -1 105 -22z"/>
<path d="M240 600 c0 -5 5 -10 10 -10 6 0 10 5 10 10 0 6 -4 10 -10 10 -5 0
-10 -4 -10 -10z"/>
<path d="M310 520 c0 -5 5 -10 10 -10 6 0 10 5 10 10 0 6 -4 10 -10 10 -5 0
-10 -4 -10 -10z"/>
<path d="M730 330 c0 -5 5 -10 10 -10 6 0 10 5 10 10 0 6 -4 10 -10 10 -5 0
-10 -4 -10 -10z"/>
</g>
</svg>
