<?xml version="1.0" standalone="no"?>
<!DOCTYPE svg PUBLIC "-//W3C//DTD SVG 20010904//EN"
 "http://www.w3.org/TR/2001/REC-SVG-20010904/DTD/svg10.dtd">
<svg version="1.0" xmlns="http://www.w3.org/2000/svg"
 width="88.000000pt" height="93.000000pt" viewBox="0 0 88.000000 93.000000"
 preserveAspectRatio="xMidYMid meet">
<metadata>
Created by potrace 1.10, written by Peter Selinger 2001-2011
</metadata>
<g transform="translate(0.000000,93.000000) scale(0.100000,-0.100000)"
fill="#00bfff" stroke="none">
<path d="M157 899 c-74 -18 -130 -63 -151 -122 -9 -29 10 -16 36 22 13 19 46
46 73 60 l50 26 270 0 c245 0 273 -2 305 -19 66 -35 90 -68 116 -156 l14 -45
-4 53 c-4 71 -44 128 -111 162 -49 25 -55 25 -305 27 -140 1 -272 -2 -293 -8z"/>
<path d="M643 678 c-16 -20 -27 -23 -93 -23 -62 0 -85 -5 -135 -29 -40 -20
-72 -29 -100 -28 -44 3 -137 -28 -166 -54 -26 -24 -23 -58 20 -214 l36 -135
30 1 c17 1 49 9 72 18 24 9 62 18 85 21 62 6 100 16 123 31 12 8 30 15 40 17
11 1 25 5 30 8 6 3 28 7 50 8 66 4 71 16 46 115 -11 47 -21 96 -21 108 0 13
18 45 40 72 22 26 40 51 40 55 0 4 -7 17 -16 29 -20 28 -57 28 -81 0z m69 -40
c-9 -9 -17 -7 -34 8 -21 17 -21 17 1 -9 14 -15 20 -27 14 -27 -5 0 -18 9 -28
20 -17 19 -17 21 0 40 l19 21 20 -21 c16 -15 18 -22 8 -32z m-107 -18 c0 -9
-7 -14 -17 -12 -22 3 -156 -37 -164 -49 -3 -5 4 -5 18 0 21 9 73 23 90 25 3 1
10 4 14 9 4 4 16 7 27 7 33 0 0 -29 -42 -36 -20 -4 -41 -11 -47 -15 -6 -5 -23
-10 -38 -11 -14 -1 -26 -6 -26 -11 0 -10 39 -4 67 11 12 7 30 12 40 12 16 -1
15 -3 -6 -20 -13 -11 -29 -20 -37 -20 -8 0 -14 -4 -14 -10 0 -5 -7 -7 -15 -4
-8 4 -15 1 -15 -6 0 -12 15 -10 52 5 11 4 18 1 21 -12 4 -16 5 -16 6 2 1 18
102 145 121 153 3 1 15 -7 25 -18 18 -20 18 -21 -8 -48 l-26 -27 25 -100 c14
-55 26 -104 27 -109 1 -5 -31 -15 -71 -22 -40 -6 -90 -21 -111 -32 l-39 -20
-11 21 c-11 22 -11 22 -8 -3 2 -23 -1 -25 -47 -27 -54 -2 -109 -18 -145 -40
-31 -20 -32 -19 -76 155 -41 166 -43 160 48 192 68 24 135 26 143 5 4 -8 14
-15 23 -15 13 0 14 2 1 10 -22 14 13 47 69 65 60 18 146 16 146 -5z"/>
<path d="M308 535 c-3 -3 -18 -8 -34 -10 -16 -2 -47 -11 -69 -20 l-40 -16 38
6 c54 9 156 43 131 44 -11 1 -23 -1 -26 -4z"/>
<path d="M380 525 c0 -8 4 -15 10 -15 5 0 7 7 4 15 -4 8 -8 15 -10 15 -2 0 -4
-7 -4 -15z"/>
<path d="M585 500 c-16 -17 -34 -30 -41 -30 -7 0 -16 -5 -20 -11 -4 -8 1 -9
17 -4 26 8 86 61 78 70 -3 2 -18 -9 -34 -25z"/>
<path d="M338 510 c-2 -6 -18 -12 -35 -14 -18 -3 -38 -8 -45 -12 -7 -5 -19 -9
-28 -10 -51 -8 -80 -24 -42 -24 11 0 23 4 27 10 3 5 12 7 19 4 8 -3 17 -1 21
5 3 6 21 11 40 11 28 0 65 20 65 36 0 9 -18 4 -22 -6z"/>
<path d="M387 476 c-4 -10 -1 -13 8 -9 8 3 12 9 9 14 -7 12 -11 11 -17 -5z"/>
<path d="M338 455 c-5 -5 -23 -9 -106 -22 -18 -3 -35 -10 -38 -15 -4 -6 1 -8
12 -5 11 3 49 11 87 17 37 7 67 16 67 21 0 10 -14 12 -22 4z"/>
<path d="M397 441 c-3 -13 -1 -18 9 -14 7 2 10 11 7 19 -7 19 -10 18 -16 -5z"/>
<path d="M450 452 c0 -5 14 -7 30 -4 17 2 30 6 30 8 0 2 -13 4 -30 4 -16 0
-30 -4 -30 -8z"/>
<path d="M314 408 c-3 -4 -18 -8 -34 -8 -37 0 -80 -16 -80 -30 0 -7 9 -5 22 4
12 9 36 16 53 17 16 0 48 7 70 14 l40 13 -33 -1 c-19 -1 -36 -5 -38 -9z"/>
<path d="M410 411 c0 -5 -3 -18 -6 -28 -4 -11 -3 -14 3 -7 4 6 13 13 20 15 8
3 7 8 -3 17 -8 7 -14 8 -14 3z"/>
<path d="M338 375 c-2 -2 -24 -6 -50 -9 -25 -3 -56 -10 -69 -15 -21 -8 -20 -9
14 -9 20 1 37 5 37 9 0 4 10 7 23 7 51 0 108 16 68 19 -11 1 -21 0 -23 -2z"/>
<path d="M418 362 c-4 -15 -1 -18 14 -14 11 2 16 8 11 11 -4 3 -11 10 -14 14
-4 4 -9 -1 -11 -11z"/>
<path d="M375 340 c-4 -6 -13 -9 -21 -6 -7 3 -16 1 -19 -3 -3 -5 -13 -7 -23
-4 -10 2 -30 -3 -46 -11 -16 -8 -36 -12 -45 -9 -12 5 -13 3 -5 -6 10 -10 19
-9 48 4 20 10 42 15 51 12 8 -4 17 -2 20 3 3 5 11 7 18 5 15 -6 44 11 35 20
-3 4 -9 1 -13 -5z"/>
<path d="M430 325 c0 -8 4 -15 10 -15 5 0 7 7 4 15 -4 8 -8 15 -10 15 -2 0 -4
-7 -4 -15z"/>
<path d="M367 304 c-3 -3 -21 -7 -39 -9 -18 -2 -51 -8 -73 -14 l-40 -10 50 5
c28 2 60 6 72 8 25 5 63 25 47 26 -6 0 -13 -3 -17 -6z"/>
<path d="M856 215 c-8 -44 -44 -111 -73 -137 -41 -37 -127 -50 -343 -49 -113
1 -225 4 -250 7 -58 8 -111 35 -139 71 -12 15 -28 37 -37 48 -15 19 -15 19 -8
-5 11 -43 55 -92 103 -114 43 -20 61 -21 321 -21 261 0 277 1 322 22 75 34
127 122 116 194 -3 19 -5 15 -12 -16z"/>
</g>
</svg>
