<?xml version="1.0" standalone="no"?>
<!DOCTYPE svg PUBLIC "-//W3C//DTD SVG 20010904//EN"
 "http://www.w3.org/TR/2001/REC-SVG-20010904/DTD/svg10.dtd">
<svg version="1.0" xmlns="http://www.w3.org/2000/svg"
 width="93.000000pt" height="102.000000pt" viewBox="0 0 93.000000 102.000000"
 preserveAspectRatio="xMidYMid meet">
<metadata>
Created by potrace 1.10, written by Peter Selinger 2001-2011
</metadata>
<g transform="translate(0.000000,102.000000) scale(0.100000,-0.100000)"
fill="#00bfff" stroke="none">
<path d="M168 937 c-25 -8 -58 -21 -72 -30 -42 -28 -78 -91 -82 -144 l-4 -48
18 51 c26 72 55 108 109 135 45 22 60 24 280 27 319 5 378 -10 433 -108 25
-45 25 -45 25 -320 0 -262 -1 -277 -21 -315 -27 -49 -48 -69 -99 -92 -77 -33
-612 -28 -623 7 -2 5 -10 10 -17 10 -29 0 -66 59 -94 150 -10 34 -10 33 -7
-18 4 -71 44 -128 111 -162 50 -25 52 -25 325 -25 261 0 277 1 322 22 57 26
103 86 117 154 14 65 14 473 0 538 -14 68 -60 128 -117 154 -44 20 -65 22
-302 24 -185 2 -268 -1 -302 -10z"/>
<path d="M390 792 c-51 -25 -83 -78 -75 -122 4 -19 6 -45 6 -57 0 -12 10 -44
24 -71 14 -28 25 -55 25 -61 0 -6 -21 -21 -47 -33 -98 -43 -115 -53 -129 -73
-15 -22 -19 -151 -5 -173 6 -11 60 -13 265 -11 239 3 256 5 262 22 10 33 5
146 -8 166 -7 11 -48 35 -90 52 -70 28 -78 34 -78 58 0 14 9 43 20 64 27 50
27 150 1 193 -22 36 -71 64 -110 64 -14 -1 -42 -9 -61 -18z m118 -22 c36 -22
54 -59 51 -105 -1 -16 2 -38 6 -48 5 -11 2 -24 -7 -35 -19 -22 -42 -81 -42
-107 0 -15 18 -27 79 -53 44 -18 86 -39 94 -47 8 -8 16 -44 19 -89 l5 -76
-263 0 -263 0 5 75 c3 41 10 81 17 89 7 8 50 30 97 48 69 27 84 37 84 55 0 22
-26 77 -47 101 -15 16 -16 22 -4 40 4 8 5 28 1 45 -9 43 14 90 54 110 43 21
75 21 114 -3z"/>
<path d="M364 684 c-4 -14 -2 -40 5 -57 l11 -32 -4 36 c-6 53 2 60 54 48 62
-15 90 -30 90 -48 0 -14 2 -14 10 -1 5 8 10 17 10 20 0 14 -127 60 -164 60 -3
0 -9 -12 -12 -26z"/>
</g>
</svg>
