<?xml version="1.0" standalone="no"?>
<!DOCTYPE svg PUBLIC "-//W3C//DTD SVG 20010904//EN"
 "http://www.w3.org/TR/2001/REC-SVG-20010904/DTD/svg10.dtd">
<svg version="1.0" xmlns="http://www.w3.org/2000/svg"
 width="96.000000pt" height="100.000000pt" viewBox="0 0 96.000000 100.000000"
 preserveAspectRatio="xMidYMid meet">
<metadata>
Created by potrace 1.10, written by Peter Selinger 2001-2011
</metadata>
<g transform="translate(0.000000,100.000000) scale(0.100000,-0.100000)"
fill="#00bfff" stroke="none">
<path d="M188 926 c-25 -7 -58 -20 -72 -29 -36 -24 -73 -83 -85 -137 -14 -60
-14 -476 0 -539 14 -68 60 -128 117 -154 45 -21 61 -22 322 -22 261 0 277 1
322 22 57 26 103 86 117 154 14 65 14 473 0 538 -14 68 -60 128 -117 154 -44
21 -64 22 -302 24 -184 2 -268 -1 -302 -11z m582 -28 c51 -23 108 -85 117
-127 5 -20 8 -153 8 -297 l0 -261 -30 -49 c-20 -31 -47 -58 -75 -74 -45 -25
-45 -25 -320 -25 -255 0 -278 1 -315 20 -52 26 -101 99 -109 162 -13 96 -15
301 -6 411 12 132 31 179 90 218 55 37 113 43 375 40 183 -2 237 -5 265 -18z"/>
<path d="M459 846 c-3 -3 -23 -8 -45 -11 -21 -4 -47 -8 -56 -11 -10 -3 -30 -7
-45 -10 -16 -2 -38 -10 -50 -16 l-23 -11 0 -293 c0 -236 3 -295 14 -306 15
-16 223 -62 252 -56 11 2 20 13 22 26 3 23 10 26 50 22 45 -3 52 14 52 136 0
91 3 114 14 114 8 0 16 -7 20 -15 3 -8 11 -15 17 -15 14 0 89 74 89 88 0 5
-18 29 -39 52 -41 45 -68 49 -78 10 -14 -52 -23 -9 -23 104 0 82 -4 127 -11
132 -11 6 -28 9 -71 13 -9 0 -18 11 -20 24 -2 16 -11 23 -33 25 -17 2 -33 1
-36 -2z m104 -66 l52 0 -3 -130 -3 -130 -25 6 c-14 4 -31 1 -39 -6 -13 -11
-15 2 -17 101 -1 136 -1 136 -11 145 -4 4 -7 -120 -7 -275 0 -186 3 -280 10
-276 6 4 10 57 10 128 0 94 3 118 12 109 15 -15 58 -16 58 -1 0 7 -10 9 -25 7
-22 -5 -25 -2 -25 23 0 29 0 29 63 29 l64 0 -5 33 -4 32 43 -42 44 -43 -44
-42 c-42 -41 -43 -42 -37 -15 6 26 5 27 -29 27 l-36 0 3 -130 3 -130 -52 0
c-52 0 -53 -1 -53 -28 l0 -29 -102 23 c-57 13 -113 23 -125 24 l-23 0 0 300 0
300 23 1 c12 0 67 10 122 22 l100 23 3 -28 c3 -27 6 -28 55 -28z"/>
<path d="M465 500 c-4 -6 -3 -16 3 -22 6 -6 12 -6 17 2 4 6 3 16 -3 22 -6 6
-12 6 -17 -2z"/>
</g>
</svg>
